<?xml version="1.0" encoding="UTF-8"?>
<svg id="Layer_1" data-name="Layer 1" xmlns="http://www.w3.org/2000/svg" xmlns:xlink="http://www.w3.org/1999/xlink" viewBox="0 0 1920 1080">
  <defs>
    <style>
      .cls-1 {
        fill: none;
      }

      .cls-2 {
        fill: #2b093f;
      }

      .cls-3 {
        clip-path: url(#clippath);
      }

      .cls-4 {
        fill: #7e277c;
      }
    </style>
    <clipPath id="clippath">
      <rect class="cls-1" width="1920" height="1080"/>
    </clipPath>
  </defs>
  <g>
    <path class="cls-2" d="M981.9,548.79h16.12v5.04h-23.18v-4.01l15.34-19.82h-14.95v-5.04h22.02v4.01l-15.34,19.82Z"/>
    <path class="cls-2" d="M1000.17,539.44c0-8.27,5.99-15.08,15.08-15.08s15.12,6.81,15.12,15.08-5.99,15-15.12,15-15.08-6.77-15.08-15ZM1025.17,539.4c0-5.43-3.83-10-9.91-10s-9.87,4.57-9.87,10,3.84,10,9.87,10,9.91-4.61,9.91-10Z"/>
    <path class="cls-2" d="M1035.39,553.83v-28.87h14.65c5.6,0,9.65,2.89,9.65,8.06,0,2.71-1.03,4.74-2.84,6.03v.13c2.28.56,3.4,2.28,3.4,5.13v9.52h-5.17v-8.53c0-1.21-.69-1.81-1.98-1.81h-12.54v10.34h-5.17ZM1040.56,538.67h9.13c2.8,0,4.83-1.64,4.83-4.35s-2.11-4.31-4.83-4.31h-9.13v8.66Z"/>
    <path class="cls-2" d="M1088.09,553.83l-2.84-6.94h-12.88l-2.8,6.94h-5.69l12.15-28.87h5.69l12.19,28.87h-5.82ZM1074.26,542.2h9.05l-4.57-11.12-4.48,11.12Z"/>
    <path class="cls-2" d="M1097.4,524.96h5.17v28.87h-5.17v-28.87Z"/>
  </g>
  <g>
    <path class="cls-4" d="M1000.43,576.12c0,5.64-4.39,9.61-9.95,9.61h-8.88v9.65h-5.17v-28.87h14.05c5.65,0,9.95,4.09,9.95,9.61ZM990.17,580.82c2.89,0,5-1.85,5-4.65s-2.15-4.61-5-4.61h-8.58v9.26h8.58Z"/>
    <path class="cls-4" d="M1005.04,595.38v-28.87h14.65c5.6,0,9.65,2.89,9.65,8.06,0,2.71-1.03,4.74-2.84,6.03v.13c2.28.56,3.4,2.28,3.4,5.13v9.52h-5.17v-8.53c0-1.21-.69-1.81-1.98-1.81h-12.54v10.34h-5.17ZM1010.22,580.21h9.13c2.8,0,4.83-1.64,4.83-4.35s-2.11-4.31-4.83-4.31h-9.13v8.66Z"/>
    <path class="cls-4" d="M1033.88,580.99c0-8.27,5.99-15.08,15.08-15.08s15.12,6.81,15.12,15.08-5.99,15-15.12,15-15.08-6.77-15.08-15ZM1058.87,580.95c0-5.43-3.83-10-9.91-10s-9.87,4.57-9.87,10,3.83,10,9.87,10,9.91-4.61,9.91-10Z"/>
    <path class="cls-4" d="M1096.97,584.05c-1.16,6.81-6.68,11.94-14.52,11.94-8.92,0-14.82-6.81-14.82-15s5.9-15.08,14.82-15.08c7.67,0,13.19,5,14.44,11.68h-5.39c-1.12-3.83-4.48-6.68-9.01-6.64-5.86.04-9.65,4.65-9.65,10s3.79,9.95,9.65,9.95c4.74,0,8.1-2.89,9.09-6.85h5.39Z"/>
    <path class="cls-4" d="M1101.15,566.51h5.13v16.42c0,4.65,2.97,8.1,7.46,8.1s7.5-3.45,7.5-8.1v-16.42h5.17v16.55c0,7.93-5.08,13.01-12.62,13.01s-12.63-5.13-12.63-13.01v-16.55Z"/>
    <path class="cls-4" d="M1132.44,595.38v-28.87h14.65c5.6,0,9.65,2.89,9.65,8.06,0,2.71-1.03,4.74-2.84,6.03v.13c2.28.56,3.4,2.28,3.4,5.13v9.52h-5.17v-8.53c0-1.21-.69-1.81-1.98-1.81h-12.54v10.34h-5.17ZM1137.61,580.21h9.13c2.8,0,4.83-1.64,4.83-4.35s-2.11-4.31-4.83-4.31h-9.13v8.66Z"/>
    <path class="cls-4" d="M1162.61,595.38v-28.87h21.76v5.04h-16.59v6.59h15v4.87h-15v7.33h16.59v5.04h-21.76Z"/>
    <path class="cls-4" d="M1221.82,595.38h-5.17v-21.03l-8.92,21.03h-3.79l-8.88-21.03v21.03h-5.17v-28.87h7.15l8.88,21.07,8.88-21.07h7.02v28.87Z"/>
    <path class="cls-4" d="M1228.59,595.38v-28.87h21.76v5.04h-16.59v6.59h15v4.87h-15v7.33h16.59v5.04h-21.76Z"/>
    <path class="cls-4" d="M1277.25,566.51h5.17v28.87h-5.17l-16.16-21.72v21.72h-5.17v-28.87h6.03l15.3,20.38v-20.38Z"/>
    <path class="cls-4" d="M1311.9,566.51v5.04h-10.04v23.83h-5.13v-23.83h-10.04v-5.04h25.21Z"/>
  </g>
  <g>
    <path class="cls-2" d="M997.71,608.06v5.04h-14.22c-1.94,0-3.02,1.29-3.02,2.67,0,1.16.73,2.37,2.28,2.76l10.47,2.5c4.4,1.08,6.38,4.48,6.38,7.76,0,4.09-2.93,8.14-8.49,8.14h-15.17v-5.04h14.95c2.03,0,3.19-1.51,3.19-2.97,0-1.21-.82-2.54-2.46-2.93l-10.51-2.5c-4.31-1.03-6.21-4.4-6.21-7.58,0-3.96,2.84-7.84,8.27-7.84h14.52Z"/>
    <path class="cls-2" d="M1004.31,636.93v-28.87h21.76v5.04h-16.59v6.59h15v4.87h-15v7.33h16.59v5.04h-21.76Z"/>
    <path class="cls-2" d="M1031.64,636.93v-28.87h14.65c5.6,0,9.65,2.89,9.65,8.06,0,2.71-1.03,4.74-2.84,6.03v.13c2.28.56,3.4,2.28,3.4,5.13v9.52h-5.17v-8.53c0-1.21-.69-1.81-1.98-1.81h-12.54v10.34h-5.17ZM1036.81,621.76h9.13c2.8,0,4.83-1.64,4.83-4.35s-2.11-4.31-4.83-4.31h-9.13v8.66Z"/>
    <path class="cls-2" d="M1082.53,608.06h5.56l-12.24,28.87h-5.64l-12.24-28.87h5.64l9.52,22.58,9.39-22.58Z"/>
    <path class="cls-2" d="M1091.24,608.06h5.17v28.87h-5.17v-28.87Z"/>
    <path class="cls-2" d="M1130.58,625.59c-1.16,6.81-6.68,11.94-14.52,11.94-8.92,0-14.82-6.81-14.82-15s5.9-15.08,14.82-15.08c7.67,0,13.19,5,14.44,11.68h-5.39c-1.12-3.83-4.48-6.68-9.01-6.64-5.86.04-9.65,4.65-9.65,10s3.79,9.95,9.65,9.95c4.74,0,8.1-2.89,9.09-6.85h5.39Z"/>
    <path class="cls-2" d="M1135.37,636.93v-28.87h21.76v5.04h-16.59v6.59h15v4.87h-15v7.33h16.59v5.04h-21.76Z"/>
    <path class="cls-2" d="M1173.04,608.06h5.17v23.83h15.47v5.04h-20.64v-28.87Z"/>
    <path class="cls-2" d="M1214.71,608.06v5.04h-10.04v23.83h-5.13v-23.83h-10.04v-5.04h25.21Z"/>
    <path class="cls-2" d="M1219.03,608.06h11.89c8.45,0,14.52,6.08,14.52,14.35v.13c0,8.27-6.08,14.35-14.52,14.35h-11.89v-28.83ZM1224.2,613.1v18.79h6.64c5.47,0,9.39-3.83,9.39-9.35v-.13c0-5.52-3.92-9.31-9.39-9.31h-6.64Z"/>
  </g>
  <g>
    <path class="cls-2" d="M1296.58,522.11h5.01v1.21h-6.72v-.95l4.79-6.36h-4.68v-1.21h6.38v.95l-4.78,6.36Z"/>
    <path class="cls-2" d="M1312.44,523.31h-1.23v-6.61l-2.86,6.61h-1.07l-2.83-6.57v6.57h-1.23v-8.52h1.7l2.94,6.79,2.92-6.79h1.67v8.52Z"/>
  </g>
  <g class="cls-3">
    <path class="cls-2" d="M717.28,503.35c0,6.31,5.12,11.43,11.43,11.43s11.43-5.12,11.43-11.43-5.12-11.43-11.43-11.43-11.43,5.12-11.43,11.43"/>
    <path class="cls-2" d="M774.42,435.16c0,3.79,3.07,6.86,6.86,6.86s6.86-3.07,6.86-6.86-3.07-6.86-6.86-6.86-6.86,3.07-6.86,6.86"/>
    <path class="cls-2" d="M707.09,454.63c0,13.15,10.66,23.81,23.81,23.81s23.81-10.66,23.81-23.81-10.66-23.81-23.81-23.81-23.81,10.66-23.81,23.81"/>
    <path class="cls-4" d="M685.87,470.98c0,8.84,7.16,16,16,16s16-7.16,16-16-7.16-16-16-16-16,7.16-16,16"/>
    <rect class="cls-4" x="948.97" y="507.57" width="4.12" height="144.12"/>
    <rect class="cls-2" x="948.97" y="576.55" width="4.12" height="75.15"/>
    <path class="cls-2" d="M706.01,616.32v19.68h-107.64l-.15-19.68c0-7.46,2.5-14.16,7.52-20.08,5.01-5.92,11.02-10.96,18.01-15.12,6.98-4.17,15.92-8.91,26.81-14.25,10.35-4.91,17.97-9.02,22.89-12.32,4.5-3.04,7.78-7.09,8.29-10.55l-85.27.63v-20.65h109.15v19.85c0,5.33-2.1,10.29-6.32,14.89-4.21,4.59-9.34,8.67-15.36,12.24-6.03,3.58-14.06,7.82-24.09,12.72-9.07,4.49-16.19,8.23-21.37,11.21-5.18,2.99-9.52,6.29-13.04,9.92-3.52,3.62-5.28,7.46-5.28,11.52h85.87Z"/>
    <path class="cls-2" d="M923.23,602.72c0,6.39-1.68,12.11-5.04,17.12-3.36,5.01-7.95,8.97-13.76,11.85-5.82,2.88-12.3,4.31-19.45,4.31h-73.46v-20.64h73.31c5.33,0,9.6-1.21,12.8-3.6,3.2-2.4,4.81-5.41,4.81-9.04s-1.61-6.62-4.81-8.97c-3.2-2.35-7.41-3.52-12.64-3.52h-37.3c-6.53,0-12.51-1.17-17.93-3.55,1.08-1.42,2.08-2.91,2.98-4.49,2.54-4.41,4.26-9.19,5.14-14.31,2.74,1.25,6,1.86,9.81,1.86h37.3c7.14,0,13.63,1.41,19.45,4.24,5.82,2.83,10.41,6.74,13.76,11.77,3.37,5.01,5.04,10.67,5.04,16.96"/>
    <path class="cls-2" d="M921.15,523.97v20.65h-73.47c-4.29,0-7.91.8-10.83,2.43-.96-3.42-2.34-6.68-4.12-9.76-1.74-3-3.77-5.71-6.11-8.14.52-.3,1.06-.58,1.62-.85,5.82-2.88,12.3-4.32,19.45-4.32h73.47Z"/>
    <path class="cls-4" d="M830.24,557.1v.17c0,.39.02.77.06,1.14-.01-.43-.03-.88-.06-1.31"/>
    <path class="cls-4" d="M830.3,558.48v-.07c-.04-.37-.06-.75-.06-1.14v-.16c-.35-5.71-1.89-10.94-4.64-15.68-1.61-2.79-3.54-5.27-5.79-7.44-2.13-2.07-4.56-3.86-7.26-5.36-5.55-3.1-11.79-4.64-18.73-4.64h-36.33c-7.16,0-13.61,1.6-19.36,4.8-5.77,3.2-10.27,7.64-13.53,13.29-3.25,5.65-4.88,12-4.88,19.04v75.15h20.64v-40.73h53.46c6.94,0,13.18-1.54,18.73-4.64,3.91-2.18,7.24-4.95,9.95-8.31,1.14-1.4,2.16-2.89,3.09-4.5,3.15-5.45,4.73-11.57,4.73-18.41,0-.39-.01-.79-.02-1.18M805.36,570.71c-2.88,2.78-6.72,4.16-11.53,4.16h-53.46v-13.76c0-5.01,1.54-9.02,4.64-12,3.1-2.99,7.26-4.48,12.49-4.48h36.33c4.81,0,8.65,1.39,11.53,4.16,2.52,2.43,3.93,5.51,4.24,9.24.01.02.01.04,0,.06.05.47.07.96.07,1.46v.11c0,4.59-1.43,8.28-4.31,11.05"/>
  </g>
</svg>